<?xml version="1.0" encoding="UTF-8" standalone="no"?>
<svg
   xmlns:dc="http://purl.org/dc/elements/1.1/"
   xmlns:cc="http://creativecommons.org/ns#"
   xmlns:rdf="http://www.w3.org/1999/02/22-rdf-syntax-ns#"
   xmlns:svg="http://www.w3.org/2000/svg"
   xmlns="http://www.w3.org/2000/svg"
   xmlns:sodipodi="http://sodipodi.sourceforge.net/DTD/sodipodi-0.dtd"
   xmlns:inkscape="http://www.inkscape.org/namespaces/inkscape"
   height="1593.3132"
   width="1593.3462"
   id="svg2"
   version="1.1"
   inkscape:version="0.48.3.1 r9886"
   sodipodi:docname="weibo.svg">
  <metadata
     id="metadata10">
    <rdf:RDF>
      <cc:Work
         rdf:about="">
        <dc:format>image/svg+xml</dc:format>
        <dc:type
           rdf:resource="http://purl.org/dc/dcmitype/StillImage" />
      </cc:Work>
    </rdf:RDF>
  </metadata>
  <defs
     id="defs8" />
  <sodipodi:namedview
     pagecolor="#ffffff"
     bordercolor="#666666"
     borderopacity="1"
     objecttolerance="10"
     gridtolerance="10"
     guidetolerance="10"
     inkscape:pageopacity="0"
     inkscape:pageshadow="2"
     inkscape:window-width="1855"
     inkscape:window-height="1176"
     id="namedview6"
     showgrid="false"
     inkscape:zoom="0.236"
     inkscape:cx="1678.8237"
     inkscape:cy="1398.3616"
     inkscape:window-x="65"
     inkscape:window-y="24"
     inkscape:window-maximized="1"
     inkscape:current-layer="svg2"
     fit-margin-top="0"
     fit-margin-left="0"
     fit-margin-right="0"
     fit-margin-bottom="0" />
  <path
     sodipodi:type="arc"
     style="fill:#2196f3;fill-opacity:1;fill-rule:nonzero;stroke:#000000;stroke-width:0;stroke-linecap:round;stroke-linejoin:round;stroke-miterlimit:4;stroke-opacity:1;stroke-dasharray:none"
     id="path3759"
     sodipodi:cx="67.796608"
     sodipodi:cy="-385.59323"
     sodipodi:rx="754.2373"
     sodipodi:ry="754.2373"
     d="m 822.03391,-385.59323 a 754.2373,754.2373 0 1 1 -1508.47461,0 754.2373,754.2373 0 1 1 1508.47461,0 z"
     transform="matrix(1.0561798,0,0,1.0561798,725.06743,1203.9129)" />
  <g
     id="g3761"
     transform="translate(179.17284,296.65717)">
    <path
       style="fill:#ffffff"
       sodipodi:nodetypes="sccssscsccscscsscsssssssssccsccsccscscsccsccscscscccsccsccscscssscccsccsccsccsccscscssscc"
       inkscape:connector-curvature="0"
       id="path4"
       d="M 0,672 C 0,564.66667 61.333333,449 184,325 262,247.66667 340.66667,193.66667 420,163 c 37.33333,-15.33333 69.66667,-23 97,-23 30,0 54,9 72,27 17.33333,17.33333 26,41.33333 26,72 0,20.66667 -4,44.66667 -12,72 -2.66667,9.33333 -1.66667,15.16667 3,17.5 4.66667,2.33333 10,2.5 16,0.5 l 10,-4 c 64,-26.66667 120.66667,-40 170,-40 49.33333,0 84.66667,14 106,42 10,14.66667 15,32 15,52 0,20.66667 -5.33333,44.33333 -16,71 -4.66667,6.66667 -5.5,12.33333 -2.5,17 3,4.66667 5.66667,7.66667 8,9 2.33333,1.33333 7.16667,3 14.5,5 41.33333,12.66667 76.6667,33.33333 106,62 29.3333,28.66667 44,64.33333 44,107 0,39.33333 -13.6667,79.5 -41,120.5 -27.3333,41 -64.5,78.5 -111.5,112.5 -47,34 -106.33333,62 -178,84 -71.66667,22 -147.83333,33 -228.5,33 -87.33333,0 -169.83333,-12.83333 -247.5,-38.5 C 192.83333,935.83333 128.33333,897.5 77,846.5 25.666667,795.5 0,737.33333 0,672 z m 125,48 c 6.66667,67.33333 48.33333,121 125,161 61.33333,32.66667 131,49 209,49 19.33333,0 39.33333,-1 60,-3 102,-10 187,-42.33333 255,-97 61.33333,-50 92,-105 92,-165 0,-6 -0.33333,-12 -1,-18 -6.66667,-66.66667 -48.33333,-120 -125,-160 -62,-32.66667 -132,-49 -210,-49 -19.33333,0 -39,1 -59,3 -67.33333,6.66667 -128.33333,23.66667 -183,51 -54.66667,27.33333 -96.66667,61 -126,101 -25.33333,35.33333 -38,71.66667 -38,109 0,6 0.33333,12 1,18 z M 803,63 c -0.66667,-3.333333 -1,-6.666667 -1,-10 0,-8.666667 2.66667,-17 8,-25 6.66667,-10.666667 16.33333,-17.666667 29,-21 22.66667,-4.6666667 45.33333,-7 68,-7 34,0 67.33333,5 100,15 55.3333,18 103,49 143,93 40,44 66,95 78,153 4.6667,23.33333 7,46 7,68 0,34 -5.3333,66.66667 -16,98 l 0,1 c -4,12 -11.6667,21 -23,27 -7.3333,3.33333 -14.6667,5 -22,5 -4.6667,0 -9.6667,-0.66667 -15,-2 -12.6667,-4 -21.6667,-11.66667 -27,-23 -3.3333,-7.33333 -5,-14.33333 -5,-21 0,-5.33333 0.6667,-10.33333 2,-15 l 0,-1 c 7.3333,-22.66667 11,-46 11,-70 0,-15.33333 -1.3333,-31.33333 -4,-48 -8.6667,-41.33333 -27.3333,-77.66667 -56,-109 -28.6667,-31.33333 -62.6667,-53.33333 -102,-66 -23.33333,-6.666667 -46.66667,-10 -70,-10 -16,0 -32.33333,1.666667 -49,5 -3.33333,0.66667 -6.66667,1 -10,1 -9.33333,0 -18,-2.666667 -26,-8 -10.66667,-7.333333 -17.33333,-17.333333 -20,-30 z m 40,157 c -0.66667,-3.33333 -1,-6.66667 -1,-10 0,-6.66667 2,-13.66667 6,-21 6,-9.33333 14.66667,-15.33333 26,-18 12.66667,-2.66667 25,-4 37,-4 44.66667,0 83,17.66667 115,53 19.3333,22 32,47 38,75 2,11.33333 3,22.33333 3,33 0,16 -2.6667,32 -8,48 -3.3333,10.66667 -10,18.33333 -20,23 -6,3.33333 -12,5 -18,5 -4.6667,0 -9,-0.66667 -13,-2 -10.66667,-3.33333 -18.66667,-10 -24,-20 -2.66667,-6 -4,-12 -4,-18 0,-4.66667 0.66667,-9 2,-13 2.66667,-9.33333 4,-18 4,-26 0,-18.66667 -7,-35.33333 -21,-50 -14.66667,-17.33333 -32.66667,-26 -54,-26 -6.66667,0 -13.33333,0.66667 -20,2 -3.33333,0.66667 -6.33333,1 -9,1 -7.33333,0 -14.33333,-2.33333 -21,-7 -9.33333,-6 -15.33333,-14.33333 -18,-25 z" />
    <text
       transform="matrix(0.8660254,0.5,-0.5,0.8660254,0,0)"
       sodipodi:linespacing="125%"
       id="text2987"
       y="481.78375"
       x="574.27881"
       style="font-size:492.3737793px;font-style:italic;font-variant:normal;font-weight:bold;font-stretch:normal;text-align:start;line-height:125%;letter-spacing:0px;word-spacing:0px;writing-mode:lr-tb;text-anchor:start;fill:#ffffff;fill-opacity:1;stroke:#000000;stroke-width:0;stroke-linecap:round;stroke-linejoin:round;stroke-miterlimit:4;stroke-opacity:1;stroke-dasharray:none;font-family:Source Code Pro;-inkscape-font-specification:Source Code Pro Bold Italic"
       xml:space="preserve"><tspan
         style="fill:#ffffff;stroke-width:0;stroke-linecap:round;stroke-linejoin:round;stroke-miterlimit:4;stroke-dasharray:none"
         y="481.78375"
         x="574.27881"
         id="tspan2989"
         sodipodi:role="line">@</tspan></text>
  </g>
</svg>
